<!-- AI-OS SVG Icons Library -->
<svg xmlns="http://www.w3.org/2000/svg" style="display: none;">
    <!-- Navigation Icons -->
    <symbol id="icon-home" viewBox="0 0 24 24" fill="none" stroke="currentColor" stroke-width="2">
        <path d="M3 9l9-7 9 7v11a2 2 0 0 1-2 2H5a2 2 0 0 1-2-2z"></path>
        <polyline points="9 22 9 12 15 12 15 22"></polyline>
    </symbol>
    <symbol id="icon-back" viewBox="0 0 24 24" fill="none" stroke="currentColor" stroke-width="2">
        <polyline points="15 18 9 12 15 6"></polyline>
    </symbol>
    <symbol id="icon-forward" viewBox="0 0 24 24" fill="none" stroke="currentColor" stroke-width="2">
        <polyline points="9 18 15 12 9 6"></polyline>
    </symbol>
    <symbol id="icon-menu" viewBox="0 0 24 24" fill="none" stroke="currentColor" stroke-width="2">
        <line x1="3" y1="12" x2="21" y2="12"></line>
        <line x1="3" y1="6" x2="21" y2="6"></line>
        <line x1="3" y1="18" x2="21" y2="18"></line>
    </symbol>
    <symbol id="icon-close" viewBox="0 0 24 24" fill="none" stroke="currentColor" stroke-width="2">
        <line x1="18" y1="6" x2="6" y2="18"></line>
        <line x1="6" y1="6" x2="18" y2="18"></line>
    </symbol>
    <symbol id="icon-minimize" viewBox="0 0 24 24" fill="none" stroke="currentColor" stroke-width="2">
        <line x1="5" y1="12" x2="19" y2="12"></line>
    </symbol>
    <symbol id="icon-maximize" viewBox="0 0 24 24" fill="none" stroke="currentColor" stroke-width="2">
        <rect x="3" y="3" width="18" height="18" rx="2"></rect>
    </symbol>

    <!-- System Icons -->
    <symbol id="icon-system" viewBox="0 0 24 24" fill="none" stroke="currentColor" stroke-width="2">
        <circle cx="12" cy="12" r="3"></circle>
        <path d="M19.4 15a1.65 1.65 0 0 0 .33 1.82l.06.06a2 2 0 0 1 0 2.83 2 2 0 0 1-2.83 0l-.06-.06a1.65 1.65 0 0 0-1.82-.33 1.65 1.65 0 0 0-1 1.51V21a2 2 0 0 1-2 2 2 2 0 0 1-2-2v-.09A1.65 1.65 0 0 0 9 19.4a1.65 1.65 0 0 0-1.82.33l-.06.06a2 2 0 0 1-2.83 0 2 2 0 0 1 0-2.83l.06-.06a1.65 1.65 0 0 0 .33-1.82 1.65 1.65 0 0 0-1.51-1H3a2 2 0 0 1-2-2 2 2 0 0 1 2-2h.09A1.65 1.65 0 0 0 4.6 9a1.65 1.65 0 0 0-.33-1.82l-.06-.06a2 2 0 0 1 0-2.83 2 2 0 0 1 2.83 0l.06.06a1.65 1.65 0 0 0 1.82.33H9a1.65 1.65 0 0 0 1-1.51V3a2 2 0 0 1 2-2 2 2 0 0 1 2 2v.09a1.65 1.65 0 0 0 1 1.51 1.65 1.65 0 0 0 1.82-.33l.06-.06a2 2 0 0 1 2.83 0 2 2 0 0 1 0 2.83l-.06.06a1.65 1.65 0 0 0-.33 1.82V9a1.65 1.65 0 0 0 1.51 1H21a2 2 0 0 1 2 2 2 2 0 0 1-2 2h-.09a1.65 1.65 0 0 0-1.51 1z"></path>
    </symbol>
    <symbol id="icon-settings" viewBox="0 0 24 24" fill="none" stroke="currentColor" stroke-width="2">
        <circle cx="12" cy="12" r="3"></circle>
        <path d="M19.4 15a1.65 1.65 0 0 0 .33 1.82l.06.06a2 2 0 0 1 0 2.83 2 2 0 0 1-2.83 0l-.06-.06a1.65 1.65 0 0 0-1.82-.33 1.65 1.65 0 0 0-1 1.51V21a2 2 0 0 1-2 2 2 2 0 0 1-2-2v-.09A1.65 1.65 0 0 0 9 19.4a1.65 1.65 0 0 0-1.82.33l-.06.06a2 2 0 0 1-2.83 0 2 2 0 0 1 0-2.83l.06-.06a1.65 1.65 0 0 0 .33-1.82 1.65 1.65 0 0 0-1.51-1H3a2 2 0 0 1-2-2 2 2 0 0 1 2-2h.09A1.65 1.65 0 0 0 4.6 9a1.65 1.65 0 0 0-.33-1.82l-.06-.06a2 2 0 0 1 0-2.83 2 2 0 0 1 2.83 0l.06.06a1.65 1.65 0 0 0 1.82.33H9a1.65 1.65 0 0 0 1-1.51V3a2 2 0 0 1 2-2 2 2 0 0 1 2 2v.09a1.65 1.65 0 0 0 1 1.51 1.65 1.65 0 0 0 1.82-.33l.06-.06a2 2 0 0 1 2.83 0 2 2 0 0 1 0 2.83l-.06.06a1.65 1.65 0 0 0-.33 1.82V9a1.65 1.65 0 0 0 1.51 1H21a2 2 0 0 1 2 2 2 2 0 0 1-2 2h-.09a1.65 1.65 0 0 0-1.51 1z"></path>
    </symbol>
    <symbol id="icon-terminal" viewBox="0 0 24 24" fill="none" stroke="currentColor" stroke-width="2">
        <polyline points="4 17 10 11 4 5"></polyline>
        <line x1="12" y1="19" x2="20" y2="19"></line>
    </symbol>
    <symbol id="icon-folder" viewBox="0 0 24 24" fill="none" stroke="currentColor" stroke-width="2">
        <path d="M22 19a2 2 0 0 1-2 2H4a2 2 0 0 1-2-2V5a2 2 0 0 1 2-2h5l2 3h9a2 2 0 0 1 2 2z"></path>
    </symbol>

    <!-- Development Icons -->
    <symbol id="icon-development" viewBox="0 0 24 24" fill="none" stroke="currentColor" stroke-width="2">
        <polyline points="16 18 22 12 16 6"></polyline>
        <polyline points="8 6 2 12 8 18"></polyline>
    </symbol>
    <symbol id="icon-code" viewBox="0 0 24 24" fill="none" stroke="currentColor" stroke-width="2">
        <polyline points="16 18 22 12 16 6"></polyline>
        <polyline points="8 6 2 12 8 18"></polyline>
    </symbol>
    <symbol id="icon-desktop" viewBox="0 0 24 24" fill="none" stroke="currentColor" stroke-width="2">
        <rect x="2" y="3" width="20" height="14" rx="2"></rect>
        <line x1="8" y1="21" x2="16" y2="21"></line>
        <line x1="12" y1="17" x2="12" y2="21"></line>
    </symbol>

    <!-- Mobile Icons -->
    <symbol id="icon-mobile" viewBox="0 0 24 24" fill="none" stroke="currentColor" stroke-width="2">
        <rect x="5" y="2" width="14" height="20" rx="2"></rect>
        <line x1="12" y1="18" x2="12.01" y2="18"></line>
    </symbol>
    <symbol id="icon-android" viewBox="0 0 24 24" fill="none" stroke="currentColor" stroke-width="2">
        <rect x="4" y="4" width="16" height="16" rx="2"></rect>
        <rect x="9" y="9" width="6" height="6"></rect>
        <path d="M9 15h6"></path>
    </symbol>
    <symbol id="icon-ios" viewBox="0 0 24 24" fill="none" stroke="currentColor" stroke-width="2">
        <rect x="5" y="2" width="14" height="20" rx="2" ry="2"></rect>
        <line x1="12" y1="18" x2="12.01" y2="18"></line>
    </symbol>
    <symbol id="icon-voice" viewBox="0 0 24 24" fill="none" stroke="currentColor" stroke-width="2">
        <path d="M12 1a3 3 0 0 0-3 3v8a3 3 0 0 0 6 0V4a3 3 0 0 0-3-3z"></path>
        <path d="M19 10v2a7 7 0 0 1-14 0v-2"></path>
        <line x1="12" y1="19" x2="12" y2="23"></line>
        <line x1="8" y1="23" x2="16" y2="23"></line>
    </symbol>

    <!-- Monitoring Icons -->
    <symbol id="icon-monitoring" viewBox="0 0 24 24" fill="none" stroke="currentColor" stroke-width="2">
        <line x1="18" y1="20" x2="18" y2="10"></line>
        <line x1="12" y1="20" x2="12" y2="4"></line>
        <line x1="6" y1="20" x2="6" y2="14"></line>
    </symbol>
    <symbol id="icon-network" viewBox="0 0 24 24" fill="none" stroke="currentColor" stroke-width="2">
        <circle cx="12" cy="12" r="10"></circle>
        <line x1="2" y1="12" x2="22" y2="12"></line>
        <path d="M12 2a15.3 15.3 0 0 1 4 10 15.3 15.3 0 0 1-4 10 15.3 15.3 0 0 1-4-10 15.3 15.3 0 0 1 4-10z"></path>
    </symbol>
    <symbol id="icon-dashboard" viewBox="0 0 24 24" fill="none" stroke="currentColor" stroke-width="2">
        <rect x="3" y="3" width="7" height="9"></rect>
        <rect x="14" y="3" width="7" height="5"></rect>
        <rect x="14" y="12" width="7" height="9"></rect>
        <rect x="3" y="16" width="7" height="5"></rect>
    </symbol>

    <!-- App Store Icons -->
    <symbol id="icon-store" viewBox="0 0 24 24" fill="none" stroke="currentColor" stroke-width="2">
        <circle cx="9" cy="21" r="1"></circle>
        <circle cx="20" cy="21" r="1"></circle>
        <path d="M1 1h4l2.68 13.39a2 2 0 0 0 2 1.61h9.72a2 2 0 0 0 2-1.61L23 6H6"></path>
    </symbol>
    <symbol id="icon-download" viewBox="0 0 24 24" fill="none" stroke="currentColor" stroke-width="2">
        <path d="M21 15v4a2 2 0 0 1-2 2H5a2 2 0 0 1-2-2v-4"></path>
        <polyline points="7 10 12 15 17 10"></polyline>
        <line x1="12" y1="15" x2="12" y2="3"></line>
    </symbol>
    <symbol id="icon-upload" viewBox="0 0 24 24" fill="none" stroke="currentColor" stroke-width="2">
        <path d="M21 15v4a2 2 0 0 1-2 2H5a2 2 0 0 1-2-2v-4"></path>
        <polyline points="17 8 12 3 7 8"></polyline>
        <line x1="12" y1="3" x2="12" y2="15"></line>
    </symbol>

    <!-- Learning Icons -->
    <symbol id="icon-learning" viewBox="0 0 24 24" fill="none" stroke="currentColor" stroke-width="2">
        <path d="M4 19.5A2.5 2.5 0 0 1 6.5 17H20"></path>
        <path d="M6.5 2H20v20H6.5A2.5 2.5 0 0 1 4 19.5v-15A2.5 2.5 0 0 1 6.5 2z"></path>
    </symbol>
    <symbol id="icon-book" viewBox="0 0 24 24" fill="none" stroke="currentColor" stroke-width="2">
        <path d="M4 19.5A2.5 2.5 0 0 1 6.5 17H20"></path>
        <path d="M6.5 2H20v20H6.5A2.5 2.5 0 0 1 4 19.5v-15A2.5 2.5 0 0 1 6.5 2z"></path>
    </symbol>

    <!-- Performance Icons -->
    <symbol id="icon-performance" viewBox="0 0 24 24" fill="none" stroke="currentColor" stroke-width="2">
        <polygon points="13 2 3 14 12 14 11 22 21 10 12 10 13 2"></polygon>
    </symbol>
    <symbol id="icon-speed" viewBox="0 0 24 24" fill="none" stroke="currentColor" stroke-width="2">
        <circle cx="12" cy="12" r="10"></circle>
        <polygon points="10 8 16 12 10 16 10 8"></polygon>
    </symbol>

    <!-- Utility Icons -->
    <symbol id="icon-search" viewBox="0 0 24 24" fill="none" stroke="currentColor" stroke-width="2">
        <circle cx="11" cy="11" r="8"></circle>
        <line x1="21" y1="21" x2="16.65" y2="16.65"></line>
    </symbol>
    <symbol id="icon-refresh" viewBox="0 0 24 24" fill="none" stroke="currentColor" stroke-width="2">
        <polyline points="23 4 23 10 17 10"></polyline>
        <polyline points="1 20 1 14 7 14"></polyline>
        <path d="M3.51 9a9 9 0 0 1 14.85-3.36L23 10M1 14l4.64 4.36A9 9 0 0 0 20.49 15"></path>
    </symbol>
    <symbol id="icon-universal" viewBox="0 0 24 24" fill="none" stroke="currentColor" stroke-width="2">
        <circle cx="12" cy="12" r="10"></circle>
        <circle cx="12" cy="12" r="6"></circle>
        <circle cx="12" cy="12" r="2"></circle>
    </symbol>
    <symbol id="icon-tool" viewBox="0 0 24 24" fill="none" stroke="currentColor" stroke-width="2">
        <path d="M14.7 6.3a1 1 0 0 0 0 1.4l1.6 1.6a1 1 0 0 0 1.4 0l3.77-3.77a6 6 0 0 1-7.94 7.94l-6.91 6.91a2.12 2.12 0 0 1-3-3l6.91-6.91a6 6 0 0 1 7.94-7.94l-3.76 3.76z"></path>
    </symbol>

    <!-- Status Icons -->
    <symbol id="icon-power" viewBox="0 0 24 24" fill="none" stroke="currentColor" stroke-width="2">
        <path d="M18.36 6.64a9 9 0 1 1-12.73 0"></path>
        <line x1="12" y1="2" x2="12" y2="12"></line>
    </symbol>
    <symbol id="icon-wifi" viewBox="0 0 24 24" fill="none" stroke="currentColor" stroke-width="2">
        <path d="M5 12.55a11 11 0 0 1 14.08 0"></path>
        <path d="M1.42 9a16 16 0 0 1 21.16 0"></path>
        <path d="M8.53 16.11a6 6 0 0 1 6.95 0"></path>
        <line x1="12" y1="20" x2="12.01" y2="20"></line>
    </symbol>
    <symbol id="icon-battery" viewBox="0 0 24 24" fill="none" stroke="currentColor" stroke-width="2">
        <rect x="1" y="6" width="18" height="12" rx="2"></rect>
        <line x1="23" y1="10" x2="23" y2="14"></line>
    </symbol>
    <symbol id="icon-cpu" viewBox="0 0 24 24" fill="none" stroke="currentColor" stroke-width="2">
        <rect x="4" y="4" width="16" height="16" rx="2"></rect>
        <rect x="9" y="9" width="6" height="6"></rect>
        <path d="M9 1v3"></path>
        <path d="M15 1v3"></path>
        <path d="M9 20v3"></path>
        <path d="M15 20v3"></path>
        <path d="M20 9h3"></path>
        <path d="M20 14h3"></path>
        <path d="M1 9h3"></path>
        <path d="M1 14h3"></path>
    </symbol>

    <!-- File Icons -->
    <symbol id="icon-file" viewBox="0 0 24 24" fill="none" stroke="currentColor" stroke-width="2">
        <path d="M14 2H6a2 2 0 0 0-2 2v16a2 2 0 0 0 2 2h12a2 2 0 0 0 2-2V8z"></path>
        <polyline points="14 2 14 8 20 8"></polyline>
        <line x1="16" y1="13" x2="8" y2="13"></line>
        <line x1="16" y1="17" x2="8" y2="17"></line>
        <polyline points="10 9 9 9 8 9"></polyline>
    </symbol>
    <symbol id="icon-image" viewBox="0 0 24 24" fill="none" stroke="currentColor" stroke-width="2">
        <rect x="3" y="3" width="18" height="18" rx="2"></rect>
        <circle cx="8.5" cy="8.5" r="1.5"></circle>
        <polyline points="21 15 16 10 5 21"></polyline>
    </symbol>
    <symbol id="icon-music" viewBox="0 0 24 24" fill="none" stroke="currentColor" stroke-width="2">
        <path d="M9 18V5l12-2v13"></path>
        <circle cx="6" cy="18" r="3"></circle>
        <circle cx="18" cy="16" r="3"></circle>
    </symbol>
    <symbol id="icon-video" viewBox="0 0 24 24" fill="none" stroke="currentColor" stroke-width="2">
        <polygon points="23 7 16 12 23 17 23 7"></polygon>
        <rect x="1" y="5" width="15" height="14" rx="2"></rect>
    </symbol>
</svg>